<svg width="38" height="38" viewBox="0 0 38 38" fill="none" xmlns="http://www.w3.org/2000/svg">
    <path
        d="M6.82967 37.6629L9.5384 37.6629C10.3487 37.6651 11.1514 37.5065 11.9001 37.1963C12.6487 36.8862 13.3284 36.4307 13.8998 35.8561L18.8979 30.858C20.0514 29.6997 20.7007 28.1327 20.7048 26.4981L20.7048 21.1593C25.7399 17.4361 32.3923 12.475 33.2248 11.6409C33.8956 10.9656 34.3411 10.0995 34.5004 9.16106C34.6596 8.22266 34.5248 7.25797 34.1143 6.39921L37.2116 3.29426C37.5006 3.00515 37.663 2.61309 37.663 2.20429C37.663 1.79549 37.5006 1.40343 37.2116 1.11432C36.9225 0.825302 36.5304 0.662941 36.1216 0.662941C35.7128 0.662941 35.3207 0.825302 35.0316 1.11432L31.9375 4.20848C31.0785 3.78952 30.1099 3.65032 29.1677 3.81044C28.2256 3.97055 27.3573 4.42193 26.685 5.10111C25.8509 5.93516 20.8898 12.586 17.1589 17.6211L11.8216 17.6211C11.0113 17.619 10.2086 17.7775 9.45996 18.0877C8.71132 18.3978 8.03163 18.8534 7.46022 19.4279L2.46209 24.4261C1.31149 25.5856 0.664952 27.1524 0.662949 28.7859L0.662949 31.4962C0.662949 33.1317 1.31266 34.7003 2.46914 35.8567C3.62563 37.0132 5.19416 37.6629 6.82967 37.6629ZM28.8649 7.28105C29.158 6.99971 29.5486 6.8426 29.9549 6.8426C30.3612 6.8426 30.7517 6.99971 31.0448 7.28105C31.3339 7.57015 31.4962 7.96221 31.4962 8.37102C31.4962 8.77981 31.3339 9.17188 31.0448 9.46098C30.5222 9.97899 26.4198 13.0731 21.8749 16.451C25.2543 11.9076 28.3484 7.80213 28.8649 7.28105ZM3.74631 28.7859C3.74834 27.9686 4.07303 27.1852 4.64974 26.606L9.64786 21.6079C9.93379 21.3207 10.2738 21.093 10.6482 20.9379C11.0226 20.7828 11.4241 20.7035 11.8293 20.7045L14.8911 20.7045L13.3633 22.7826L7.28138 28.8646C7.13414 29.0068 7.01669 29.1769 6.93589 29.365C6.85509 29.5531 6.81256 29.7554 6.81078 29.9601C6.80901 30.1648 6.84801 30.3678 6.92553 30.5573C7.00305 30.7467 7.11752 30.9189 7.26228 31.0636C7.40703 31.2084 7.57916 31.3228 7.76863 31.4004C7.95809 31.4779 8.1611 31.5169 8.3658 31.5151C8.57051 31.5133 8.77281 31.4708 8.9609 31.39C9.14899 31.3092 9.31911 31.1918 9.46132 31.0445L15.5417 24.9641L17.6214 23.4348L17.6214 26.4981C17.6194 27.3154 17.2947 28.0989 16.718 28.678L11.7199 33.6762C11.434 33.9634 11.094 34.1911 10.7195 34.3461C10.3451 34.5012 9.94367 34.5805 9.5384 34.5796L6.82967 34.5796C6.01191 34.5796 5.22765 34.2547 4.64941 33.6765C4.07116 33.0982 3.74631 32.314 3.74631 31.4962L3.74631 28.7859Z"
        fill="black" />
</svg>
    